<svg viewBox="0 0 2091 2091" xmlns="http://www.w3.org/2000/svg">
  <path
    d="M 1820.5 683.5 C 1820.5 710.167 1811.167 732.833 1792.5 751.5 L 1068.5 1475.5 L 932.5 1611.5 C 913.833 1630.167 891.167 1639.5 864.5 1639.5 C 837.833 1639.5 815.167 1630.167 796.5 1611.5 L 660.5 1475.5 L 298.5 1113.5 C 279.833 1094.833 270.5 1072.167 270.5 1045.5 C 270.5 1018.833 279.833 996.167 298.5 977.5 L 434.5 841.5 C 453.167 822.833 475.833 813.5 502.5 813.5 C 529.167 813.5 551.833 822.833 570.5 841.5 L 864.5 1136.5 L 1520.5 479.5 C 1539.167 460.833 1561.833 451.5 1588.5 451.5 C 1615.167 451.5 1637.833 460.833 1656.5 479.5 L 1792.5 615.5 C 1811.167 634.167 1820.5 656.833 1820.5 683.5 Z"
    fill="currentColor"/>
</svg>
