<svg viewBox="0 0 2240 2240" xmlns="http://www.w3.org/2000/svg">
  <path
    d="M 1856 800 C 1856 746.667 1837.333 701.333 1800 664 C 1762.667 626.667 1717.333 608 1664 608 L 1600 608 L 1600 992 L 1664 992 C 1717.333 992 1762.667 973.333 1800 936 C 1837.333 898.667 1856 853.333 1856 800 Z M 192 1568 L 1984 1568 C 1984 1638.667 1959 1699 1909 1749 C 1859 1799 1798.667 1824 1728 1824 L 448 1824 C 377.333 1824 317 1799 267 1749 C 217 1699 192 1638.667 192 1568 Z M 2048 800 C 2048 906 2010.5 996.5 1935.5 1071.5 C 1860.5 1146.5 1770 1184 1664 1184 L 1600 1184 L 1600 1216 C 1600 1277.333 1578 1330 1534 1374 C 1490 1418 1437.333 1440 1376 1440 L 672 1440 C 610.667 1440 558 1418 514 1374 C 470 1330 448 1277.333 448 1216 L 448 480 C 448 462.667 454.333 447.667 467 435 C 479.667 422.333 494.667 416 512 416 L 1664 416 C 1770 416 1860.5 453.5 1935.5 528.5 C 2010.5 603.5 2048 694 2048 800 Z"
    fill="currentColor"/>
</svg>
