<svg height="512" viewBox="0 0 2088 2088" width="512" xmlns="http://www.w3.org/2000/svg">
  <rect fill="#d6e4ff" height="2088" width="2088" x="0" y="0"/>
  <path
    d="M 1819 682 C 1819 708.667 1809.667 731.333 1791 750 L 1067 1474 L 931 1610 C 912.333 1628.667 889.667 1638 863 1638 C 836.333 1638 813.667 1628.667 795 1610 L 659 1474 L 297 1112 C 278.333 1093.333 269 1070.667 269 1044 C 269 1017.333 278.333 994.667 297 976 L 433 840 C 451.667 821.333 474.333 812 501 812 C 527.667 812 550.333 821.333 569 840 L 863 1135 L 1519 478 C 1537.667 459.333 1560.333 450 1587 450 C 1613.667 450 1636.333 459.333 1655 478 L 1791 614 C 1809.667 632.667 1819 655.333 1819 682 Z"
    fill="#000000" fill-opacity="0.6"/>
</svg>
