<svg viewBox="0 0 1792 1792" xmlns="http://www.w3.org/2000/svg">
  <path
    d="M 1042.048 1256 L 1042.048 1496 C 1042.048 1506.667 1038.048 1516 1030.048 1524 C 1022.048 1532 1012.714 1536 1002.048 1536 L 762.048 1536 C 751.381 1536 742.048 1532 734.048 1524 C 726.048 1516 722.048 1506.667 722.048 1496 L 722.048 1256 C 722.048 1245.333 726.048 1236 734.048 1228 C 742.048 1220 751.381 1216 762.048 1216 L 1002.048 1216 C 1012.714 1216 1022.048 1220 1030.048 1228 C 1038.048 1236 1042.048 1245.333 1042.048 1256 Z M 1358.048 656 C 1358.048 692 1352.881 725.667 1342.548 757 C 1332.214 788.333 1320.548 813.833 1307.548 833.5 C 1294.548 853.167 1276.214 873 1252.548 893 C 1228.881 913 1209.714 927.5 1195.048 936.5 C 1180.381 945.5 1160.048 957.333 1134.048 972 C 1106.714 987.333 1083.881 1009 1065.548 1037 C 1047.214 1065 1038.048 1087.333 1038.048 1104 C 1038.048 1115.333 1034.048 1126.167 1026.048 1136.5 C 1018.048 1146.833 1008.714 1152 998.048 1152 L 758.048 1152 C 748.048 1152 739.548 1145.833 732.548 1133.5 C 725.548 1121.167 722.048 1108.667 722.048 1096 L 722.048 1051 C 722.048 995.667 743.714 943.5 787.048 894.5 C 830.381 845.5 878.048 809.333 930.048 786 C 969.381 768 997.381 749.333 1014.048 730 C 1030.714 710.667 1039.048 685.333 1039.048 654 C 1039.048 626 1023.548 601.333 992.548 580 C 961.548 558.667 925.714 548 885.048 548 C 841.714 548 805.714 557.667 777.048 577 C 753.714 593.667 718.048 632 670.048 692 C 661.381 702.667 651.048 708 639.048 708 C 631.048 708 622.714 705.333 614.048 700 L 450.048 575 C 441.381 568.333 436.214 560 434.548 550 C 432.881 540 434.714 530.667 440.048 522 C 546.714 344.667 701.381 256 904.048 256 C 957.381 256 1011.048 266.333 1065.048 287 C 1119.048 307.667 1167.714 335.333 1211.048 370 C 1254.381 404.667 1289.714 447.167 1317.048 497.5 C 1344.381 547.833 1358.048 600.667 1358.048 656 Z"
    fill="currentColor"/>
</svg>
