<svg version="1.0" width="700.000000pt" height="700.000000pt" viewBox="0 0 700.000000 700.000000" preserveAspectRatio="xMidYMid meet"
     xmlns="http://www.w3.org/2000/svg">
  <path
    d="M 522.977 198.929 C 521.577 199.329 518.876 200.529 516.976 201.429 C 515.076 202.429 462.974 253.731 401.171 315.334 L 288.967 427.538 L 238.165 376.236 C 180.362 317.834 182.362 319.434 167.462 319.634 C 154.561 319.734 153.261 320.634 124.16 349.435 C 110.159 363.236 97.459 376.336 95.958 378.636 C 91.858 384.536 89.558 393.137 90.358 399.937 C 91.858 412.838 88.358 408.937 183.262 503.641 C 252.865 573.144 271.466 591.245 275.366 593.045 C 282.666 596.445 292.767 596.845 300.467 594.045 C 306.267 591.845 310.668 587.645 455.274 443.139 C 580.579 317.934 604.48 293.633 606.78 289.032 C 608.98 284.432 609.48 282.232 609.48 275.532 C 609.48 262.431 608.38 260.831 577.279 229.93 C 559.878 212.529 548.878 202.429 545.978 200.929 C 541.077 198.529 527.777 197.329 522.977 198.929 Z"/>
</svg>
